<svg xmlns="http://www.w3.org/2000/svg" viewBox="0 0 48 48" fill="none">
  <!-- Icône « image scannable » AuctionLens : viseur + étoile.
       À imprimer à côté de chaque image du catalogue reconnue par le scan. -->
  <g stroke="#000000" stroke-width="3" stroke-linecap="round">
    <path d="M4 14 V8 a4 4 0 0 1 4 -4 h6" />
    <path d="M34 4 h6 a4 4 0 0 1 4 4 v6" />
    <path d="M44 34 v6 a4 4 0 0 1 -4 4 h-6" />
    <path d="M14 44 H8 a4 4 0 0 1 -4 -4 v-6" />
  </g>
  <path d="M24 13 l3.8 7.2 L35 24 l-7.2 3.8 L24 35 l-3.8 -7.2 L13 24 l7.2 -3.8 Z" fill="#000000" />
</svg>
